<svg width="128" height="129" viewBox="0 0 128 129" fill="none" xmlns="http://www.w3.org/2000/svg">
<g clip-path="url(#clip0_560_3636)">
<path d="M48.2051 71.2046C48.2051 72.2822 48.1874 73.1785 48.2071 74.0729C48.4614 84.7662 48.4634 95.4752 49.11 106.145C49.3505 110.124 50.9197 114.072 52.2286 117.918C52.9778 120.122 54.5194 121.978 57.3581 122.508C57.6026 120.053 57.6617 117.711 58.0954 115.439C59.1678 109.815 60.2777 104.191 61.6517 98.6332C61.979 97.3093 62.0007 95.9126 61.7227 94.5769C61.4388 93.2097 60.7488 92.0671 60.1673 90.826C59.6567 89.7326 59.1106 88.657 58.5311 87.5991C58.2354 87.0593 57.6834 86.3028 57.7701 85.6704C57.8647 84.9849 58.194 84.3052 58.7105 83.8403C62.6157 80.3297 65.1193 80.4046 69.2316 83.6492C70.4775 84.6303 70.8047 85.5621 70.0083 86.9825C69.1448 88.521 68.2636 90.0518 67.4948 91.6416C66.8147 93.0521 66.0814 94.5119 66.0419 96.1096C65.9986 97.8235 66.7989 99.4172 67.272 101.035C67.7669 102.727 68.1848 104.439 68.5416 106.165C69.2552 109.608 69.7224 113.099 70.0773 116.596C70.235 118.14 70.369 119.687 70.4952 121.233C70.5228 121.574 70.6096 121.911 70.7239 122.565C73.4404 121.948 74.8144 120.045 75.877 117.857C78.4753 112.5 79.321 106.704 79.5142 100.875C79.8099 92.006 79.729 83.1252 79.8059 74.2502C79.8138 73.3361 79.8059 72.4201 79.8059 70.9564C81.8108 72.0162 83.2341 72.9953 84.8053 73.5627C93.8834 76.8369 102.914 80.2706 112.12 83.1468C119.761 85.5345 123.915 90.2882 124.851 98.1919C125.701 105.361 126.76 112.508 127.901 119.637C128.276 121.982 127.597 122.772 125.281 123.178C94.0351 128.639 62.6137 129.757 31.0642 126.856C21.4538 125.971 11.9145 124.322 2.33566 123.083C0.352477 122.827 -0.229073 121.984 0.0764873 119.986C1.2455 112.333 2.25089 104.654 3.35091 96.9902C4.33855 90.101 8.20438 85.6488 14.8222 83.5113C22.272 81.1059 29.7533 78.7754 37.1301 76.1611C40.7731 74.8708 44.2151 73.0131 48.2071 71.2046H48.2051Z" fill="#183E98"/>
<path d="M48.6897 7.96694C48.4965 6.55443 48.325 5.28771 48.2363 4.64548C51.9148 3.62895 55.3174 2.85277 58.6076 1.73971C62.6863 0.358722 66.765 -0.0805917 70.9206 1.06202C72.407 1.46981 74.0788 1.96232 75.1531 2.96506C77.8243 5.45713 80.0362 8.28214 83.3323 10.2797C85.0848 11.3416 86.6934 14.2198 86.3997 17.1984C85.9226 22.0289 85.5934 26.8752 85.3509 31.7234C85.3076 32.5863 86.3189 33.4964 86.2854 34.3652C86.1356 38.3584 85.7945 42.3457 85.4968 46.3331C85.4791 46.5635 85.28 46.9477 85.1144 46.9772C82.3446 47.4678 82.7212 49.9953 82.0095 51.7782C80.2195 56.2679 77.4399 59.9557 73.5977 63.0487C75.0013 62.3946 76.4049 61.7425 77.8066 61.0885C79.3364 65.6924 78.4138 68.9942 74.7944 71.8369C72.7422 73.4504 70.7117 75.0953 68.6043 76.6359C65.6453 78.799 62.5818 78.8581 59.6701 76.7167C56.6559 74.5004 53.7068 72.1895 50.8325 69.796C50.2017 69.2719 49.839 68.2633 49.6517 67.4122C49.4526 66.4982 49.5571 65.5053 49.6123 64.5518C49.837 60.6965 49.7483 56.9849 47.0909 53.7305C46.2078 52.647 46.0855 50.9725 45.4448 49.6525C45.0447 48.8291 44.2778 48.1928 43.7554 47.4166C43.2665 46.6896 42.6021 45.9253 42.5075 45.1176C42.1684 42.2709 41.926 39.3986 41.8865 36.5342C41.8708 35.3817 42.5055 34.2293 42.7776 33.063C42.884 32.604 42.8466 32.0977 42.8091 31.619C42.407 26.3433 41.8629 21.0735 41.6283 15.7899C41.5002 12.8802 45.1294 9.05439 48.6838 7.96694H48.6897Z" fill="#183E98"/>
</g>
<defs>
<clipPath id="clip0_560_3636">
<rect width="128" height="128" fill="white" transform="translate(0 0.409973)"/>
</clipPath>
</defs>
</svg>
