<svg width="30" height="31" viewBox="0 0 30 31" fill="none" xmlns="http://www.w3.org/2000/svg">
<path fill-rule="evenodd" clip-rule="evenodd" d="M14.6126 2.72535C14.7345 2.66992 14.8668 2.64124 15.0007 2.64124C15.1346 2.64124 15.2669 2.66992 15.3888 2.72535L27.4207 8.19473C27.5845 8.26922 27.7234 8.38926 27.8208 8.54054C27.9182 8.69181 27.97 8.86792 27.9701 9.04785V21.0797C27.9702 21.2481 27.925 21.4133 27.8392 21.5581C27.7534 21.703 27.6303 21.8221 27.4826 21.9029L15.4507 28.4654C15.3127 28.5408 15.158 28.5804 15.0007 28.5804C14.8434 28.5804 14.6887 28.5408 14.5507 28.4654L2.52071 21.9029C2.37276 21.8219 2.24938 21.7025 2.16358 21.5573C2.07779 21.4121 2.03275 21.2465 2.03321 21.0779V9.04785C2.03326 8.86792 2.08508 8.69181 2.1825 8.54054C2.27991 8.38926 2.4188 8.26922 2.58258 8.19473L14.6126 2.72535ZM15.9382 15.1191V26.0616L26.0951 20.5229V10.5047L15.9382 15.1191ZM24.7695 9.04785L15.0007 13.486L11.4495 11.8735L20.7495 7.22348L24.7695 9.04785ZM18.5538 6.2241L9.25383 10.8741L5.23383 9.04785L15.0007 4.60973L18.5538 6.2241Z" fill="#264796"/>
</svg>
