<svg width="32" height="33" viewBox="0 0 32 33" fill="none" xmlns="http://www.w3.org/2000/svg">
<path d="M28.3698 17.0953C22.3182 17.0953 16.2765 17.0953 10.2446 17.0953C10.2446 16.472 10.2446 15.8781 10.2446 15.2351C10.4017 15.4315 10.5342 15.5787 10.652 15.7309C10.8385 15.9763 11.0937 16.094 11.3931 16.099C12.7084 16.1039 14.0287 16.1039 15.344 16.099C15.6336 16.099 15.8888 15.9861 16.0753 15.7554C16.3158 15.456 16.3796 15.1223 16.2323 14.7689C16.0704 14.3861 15.7514 14.1996 15.3538 14.1554C14.3477 14.0474 13.3366 13.9493 12.3305 13.8511C12.1489 13.8315 12.0213 13.7726 11.9133 13.6057C11.29 12.6634 10.652 11.7309 10.0287 10.7934C9.33173 9.75294 8.34032 9.38975 7.13787 9.58607C6.09738 9.75294 5.08143 10.5775 5.1256 11.9763C5.17958 13.5272 5.14032 15.083 5.14032 16.6388C5.14032 16.7812 5.14032 16.9284 5.14032 17.1051C4.50228 17.1051 3.89369 17.1051 3.29492 17.1051C3.29492 17.5125 3.29492 17.8805 3.29492 18.2732C3.91823 18.2732 4.52192 18.2732 5.14032 18.2732C5.14032 18.4106 5.14032 18.5235 5.14032 18.6364C5.14032 21.7529 5.14032 24.8695 5.14032 27.9861C5.14032 28.6536 5.56732 29.1296 6.1759 29.1542C6.76977 29.1738 7.22621 28.7272 7.29001 28.0842C7.33909 27.5542 7.4029 27.029 7.46179 26.499C7.60413 25.2131 7.74155 23.9321 7.88388 22.6462C7.92805 22.2634 7.97222 21.8805 8.0164 21.4977C8.28633 22.2192 8.61026 22.9014 8.67897 23.6769C8.8164 25.1885 8.99799 26.7002 9.17468 28.2118C9.22866 28.6634 9.48879 28.9824 9.93541 29.11C10.6618 29.321 11.2998 28.7959 11.3047 27.9763C11.3096 26.1996 11.3096 24.4278 11.3047 22.6511C11.3047 22.499 11.2704 22.3419 11.2311 22.1947C10.9415 21.0707 10.6471 19.9468 10.3575 18.8278C10.3133 18.6511 10.2741 18.4744 10.2201 18.2585C16.2962 18.2585 22.3379 18.2585 28.3747 18.2585C28.3698 17.856 28.3698 17.4928 28.3698 17.0953ZM10.3231 6.70018C10.3281 5.46337 9.3121 4.4376 8.08511 4.4327C6.8483 4.42779 5.82744 5.43883 5.82253 6.67073C5.81762 7.92227 6.82867 8.93822 8.0802 8.93331C9.29738 8.93331 10.3182 7.91736 10.3231 6.70018Z" fill="white"/>
<path d="M28.3688 17.0953C28.3688 17.4928 28.3688 17.856 28.3688 18.2536C22.332 18.2536 16.2952 18.2536 10.2142 18.2536C10.2633 18.4695 10.3026 18.6462 10.3516 18.8229C10.6412 19.9468 10.9357 21.0658 11.2253 22.1898C11.2645 22.337 11.294 22.4941 11.2989 22.6462C11.3038 24.4229 11.3038 26.1947 11.2989 27.9714C11.294 28.791 10.6608 29.3161 9.92955 29.1051C9.48293 28.9775 9.22281 28.6585 9.16882 28.2069C8.99213 26.6953 8.81053 25.1885 8.67311 23.672C8.6044 22.8965 8.28047 22.2143 8.01053 21.4928C7.96636 21.8757 7.91728 22.2585 7.87802 22.6413C7.73569 23.9272 7.59826 25.2082 7.45593 26.4941C7.39704 27.0241 7.33323 27.5493 7.28415 28.0793C7.22035 28.7272 6.76391 29.1738 6.17004 29.1493C5.56146 29.1247 5.13446 28.6536 5.13446 27.9812C5.13446 24.8646 5.13446 21.748 5.13446 18.6315C5.13446 18.5186 5.13446 18.4057 5.13446 18.2683C4.51606 18.2683 3.91238 18.2683 3.28906 18.2683C3.28906 17.8756 3.28906 17.5026 3.28906 17.1002C3.88784 17.1002 4.49152 17.1002 5.13446 17.1002C5.13446 16.9235 5.13446 16.7763 5.13446 16.6339C5.13446 15.0781 5.17373 13.5223 5.11974 11.9714C5.07066 10.5775 6.09152 9.74804 7.13201 9.58117C8.33446 9.38976 9.32587 9.74804 10.0228 10.7885C10.651 11.726 11.2891 12.6585 11.9075 13.6008C12.0154 13.7628 12.1431 13.8266 12.3246 13.8462C13.3357 13.9444 14.3418 14.0425 15.348 14.1505C15.7504 14.1947 16.0694 14.3763 16.2265 14.764C16.3737 15.1174 16.3099 15.456 16.0694 15.7505C15.8829 15.9812 15.6277 16.0941 15.3381 16.0941C14.0228 16.099 12.7026 16.099 11.3872 16.0941C11.0878 16.0941 10.8326 15.9763 10.6461 15.726C10.5283 15.5689 10.4007 15.4217 10.2388 15.2303C10.2388 15.8732 10.2388 16.4671 10.2388 17.0904C16.2756 17.0953 22.3173 17.0953 28.3688 17.0953Z" fill="#183E98"/>
<path d="M10.3229 6.70017C10.318 7.91735 9.29713 8.9333 8.07995 8.93821C6.82842 8.93821 5.81738 7.92716 5.82228 6.67563C5.82719 5.44373 6.84805 4.43759 8.08486 4.43759C9.31185 4.43759 10.3229 5.46336 10.3229 6.70017Z" fill="#183E98"/>
<path d="M23.2889 21.6941C22.484 21.6941 21.7184 21.6941 20.9282 21.6941C20.9282 21.3947 20.9135 21.11 20.938 20.8303C20.9429 20.7517 21.0754 20.629 21.154 20.629C21.792 20.6143 22.43 20.6143 23.0681 20.629C23.1466 20.629 23.2791 20.7517 23.284 20.8303C23.3037 21.11 23.2889 21.3947 23.2889 21.6941Z" fill="white"/>
<path d="M22.9447 4.16765C23.141 4.22655 23.3423 4.27072 23.5337 4.33943C24.7607 4.80569 25.4183 6.14557 25.0551 7.42164C24.6969 8.66336 23.3962 9.45354 22.13 9.19342C20.8392 8.9333 19.9607 7.74066 20.103 6.44005C20.2208 5.32594 21.0159 4.44741 22.1153 4.21182C22.1742 4.20201 22.2281 4.17747 22.2821 4.15784C22.4981 4.16765 22.7238 4.16765 22.9447 4.16765Z" fill="#183E98"/>
<path d="M26.4489 16.7664C26.3655 15.3873 26.2722 14.018 25.6882 12.737C25.6882 14.0719 25.6882 15.4069 25.6882 16.7664C23.6415 16.7664 21.6244 16.7664 19.5777 16.7664C19.5777 15.4364 19.5777 14.1063 19.5777 12.7713C19.5532 12.7664 19.5287 12.7664 19.5041 12.7615C18.9642 14.0376 18.8759 15.4069 18.7925 16.7762C18.1839 16.7762 17.6047 16.7762 16.9863 16.7762C17.0158 16.3149 17.0354 15.8634 17.0747 15.4118C17.1728 14.3419 17.3495 13.2867 17.7422 12.2805C18.0906 11.3922 18.5765 10.6118 19.455 10.1357C19.9213 9.88544 20.4219 9.8609 20.9323 9.89035C20.9961 9.89526 21.0698 9.97869 21.109 10.0474C21.4231 10.5578 21.7274 11.0732 22.071 11.6376C22.1888 11.2793 22.3017 10.9799 22.3802 10.6707C22.3998 10.5922 22.3311 10.4793 22.2869 10.391C22.2084 10.2339 22.1201 10.0769 22.0268 9.90016C22.4342 9.90016 22.8072 9.90016 23.1655 9.90016C23.0673 10.1799 22.8906 10.4597 22.8906 10.7394C22.8906 11.0241 23.0575 11.3038 23.1704 11.6425C23.4354 11.2008 23.6808 10.7934 23.9262 10.3861C24.2354 9.86581 24.2354 9.86581 24.844 9.89526C25.644 9.93452 26.2526 10.3468 26.7385 10.9456C27.1998 11.5149 27.4796 12.1726 27.6906 12.8695C28.0734 14.1357 28.1863 15.4413 28.2452 16.7713C27.6514 16.7664 27.0673 16.7664 26.4489 16.7664ZM23.1213 13.3112C23.7103 13.3112 24.2747 13.3112 24.8293 13.3112C24.8293 13.1247 24.8293 12.9529 24.8293 12.7811C24.255 12.7811 23.6906 12.7811 23.1213 12.7811C23.1213 12.9676 23.1213 13.1345 23.1213 13.3112Z" fill="#183E98"/>
<path d="M20.4883 16.9433V13.4586L15.1239 13.4586V16.9433H20.4883Z" fill="white"/>
<path d="M20.2605 13.6499H15.3477V16.7468H20.2605V13.6499Z" fill="#183E98"/>
<path d="M28.3693 18.8278H12.3301V29.1542H28.3693V18.8278Z" fill="#183E98"/>
</svg>
